<?xml version="1.0" encoding="UTF-8"?><svg id="Calque_2" xmlns="http://www.w3.org/2000/svg" viewBox="0 0 191.05 165.45"><defs><style>.cls-1{fill:#f9f9f9;stroke-width:0px;}</style></defs><g id="Calque_1-2"><polygon class="cls-1" points="99.05 20 104.82 30 173.73 30 162.18 50 156.41 60 139.27 89.67 128.02 109.16 116.77 89.67 99.64 60 122.14 60 128.02 70.19 133.91 60 139.68 50 93.87 50 82.32 30 76.55 20 65 0 191.05 0 179.5 20 99.05 20"/><polygon class="cls-1" points="123.02 117.82 111.77 137.3 106.77 145.96 95.52 165.45 84.27 145.96 34.64 60 28.87 50 17.32 30 11.55 20 0 0 55 0 66.55 20 72.32 30 83.87 50 61.37 50 49.82 30 44.05 20 34.05 20 39.82 30 51.37 50 57.14 60 95.52 126.48 100.52 117.82 67.14 60 89.64 60 111.77 98.33 123.02 117.82"/></g></svg>